<svg width="100" height="28" viewBox="0 0 100 28" fill="none" xmlns="http://www.w3.org/2000/svg">
<g clip-path="url(#clip0_2494_19732)">
<mask id="mask0_2494_19732" style="mask-type:luminance" maskUnits="userSpaceOnUse" x="2" y="0" width="28" height="28">
<path fill-rule="evenodd" clip-rule="evenodd" d="M9.29373 0.0125585L10.4727 0L22.7359 0.00502405C22.9221 0.00669859 23.0382 0.00920946 23.1534 0.0125585C23.7612 0.0284667 24.375 0.0636324 24.9761 0.17164C25.5783 0.273526 26.1622 0.464259 26.7087 0.737635C27.2531 1.01226 27.7524 1.37061 28.1841 1.80013C28.616 2.22761 28.9775 2.72102 29.2554 3.262C29.5392 3.81209 29.7171 4.37557 29.8265 4.98008C29.935 5.57622 29.9709 6.18408 29.9868 6.78691C29.9951 7.06321 29.9985 7.33951 29.9993 7.61664L30.001 8.1098V19.0253C30.001 19.3535 30.001 19.6825 29.9993 20.0116C29.9976 20.2879 29.9951 20.5642 29.9868 20.8405C29.9701 21.4433 29.935 22.052 29.8265 22.6473C29.7234 23.2456 29.5309 23.8248 29.2554 24.3654C28.9774 24.9065 28.6158 25.4002 28.1841 25.8281C27.7507 26.2575 27.2529 26.616 26.7087 26.8906C26.1622 27.164 25.5784 27.3547 24.9761 27.4566C24.375 27.5638 23.7612 27.5989 23.1534 27.6157L21.3215 27.6299L9.71038 27.6232C9.57148 27.6217 9.43259 27.6189 9.29373 27.6148C8.68587 27.5998 8.07217 27.5638 7.47099 27.4566C6.86905 27.3547 6.28548 27.1639 5.73927 26.8906C4.64592 26.3388 3.75412 25.4551 3.19094 24.3654C2.9158 23.8246 2.72328 23.2455 2.61982 22.6473C2.51127 22.052 2.47621 21.4433 2.46034 20.8413C2.45199 20.565 2.44949 20.2879 2.44782 20.0116L2.44531 19.5168V8.60295C2.44531 8.27474 2.44531 7.94569 2.44782 7.61748C2.44949 7.34118 2.45283 7.06488 2.46034 6.78775C2.47704 6.18491 2.51211 5.57705 2.61982 4.98092C2.72322 4.38275 2.91574 3.80358 3.19094 3.26284C3.7533 2.17278 4.64495 1.28893 5.73843 0.737635C6.28493 0.464248 6.86878 0.273514 7.47099 0.17164C8.07217 0.0644697 8.68587 0.0293039 9.29373 0.0125585Z" fill="white"/>
</mask>
<g mask="url(#mask0_2494_19732)">
<path d="M-15.9219 -15.0781H78.2884V79.3917H-15.9219V-15.0781Z" fill="#19AA1E"/>
<path fill-rule="evenodd" clip-rule="evenodd" d="M-15.9219 -15.0781H78.2884V15.9166L-15.9219 1.15775V-15.0781Z" fill="#FFB919"/>
<path fill-rule="evenodd" clip-rule="evenodd" d="M-15.9219 -0.710938L16.9631 4.44149C21.0566 1.84238 25.9265 0.416875 31.1818 0.416875C38.461 0.416875 45.0038 3.15052 49.7653 7.948C50.3647 8.55485 50.9299 9.18745 51.4637 9.84582L78.2884 14.0479V17.7834L54.187 14.005C55.9908 17.4629 56.9358 21.3062 56.9417 25.2086C56.9417 30.2695 55.8141 35.316 53.4791 40.3825L53.4106 40.5371L52.4172 42.6668H50.0764C45.235 42.6668 42.0264 44.1181 39.9255 46.6914C38.2784 48.7094 37.3249 51.4345 37.0052 54.4057L36.9938 54.4973L36.9481 54.9725L36.9281 55.1786L36.8882 55.5822C36.7654 56.9104 36.6855 58.0353 36.6427 58.9513L78.2884 52.4249V56.1604L-15.9219 70.9221V67.1866L25.7695 60.6545L25.7524 59.8158L25.7467 59.5811L25.741 59.458L25.7353 59.2719C25.6981 58.2557 25.6039 56.9533 25.4555 55.3732L25.427 55.0727L25.3756 54.5546C25.0787 51.5662 24.1395 48.8096 22.4924 46.7601C20.4171 44.1696 17.24 42.6954 12.4357 42.6668H9.94648L8.95594 40.5371C6.5752 35.419 5.42194 30.321 5.42194 25.2086C5.42194 18.7796 8.02249 12.5623 12.6013 7.948L13.0009 7.55585L-15.9219 3.02171V-0.710938Z" fill="white"/>
<path fill-rule="evenodd" clip-rule="evenodd" d="M31.1819 4.10938C44.3358 4.10938 53.2622 14.2597 53.2622 25.2114C53.2622 29.6082 52.3059 34.1824 50.0736 38.9799C37.1337 38.9799 33.9394 48.2714 33.3342 54.1223L33.2943 54.5087C33.0916 56.5983 32.9717 58.2729 32.9403 59.5323L29.4349 60.0819V59.9674C29.3861 58.1072 29.2603 56.2498 29.058 54.3999L29.0495 54.2969C28.49 48.4603 25.3642 38.9799 12.293 38.9799C10.0579 34.1824 9.10156 29.6082 9.10156 25.2114C9.10156 14.2597 18.0307 4.10938 31.1819 4.10938Z" fill="#0073FA"/>
</g>
<path fill-rule="evenodd" clip-rule="evenodd" d="M42.1802 5.09375C37.8783 5.09375 34.6528 7.65872 34.6799 12.1133H38.6779C38.6229 10.3314 39.7805 8.60308 42.1802 8.60308C43.9994 8.60308 45.1578 9.79096 45.1578 11.303C45.1578 12.8693 43.8886 13.733 41.8493 14.7054C39.1746 15.9739 37.5754 16.5678 34.6799 17.5122V22.6421H49.5688V19.1319H40.0842C41.466 18.5677 42.8114 17.9483 44.0273 17.3773C47.2529 15.8661 49.155 14.1649 49.155 11.1146C49.155 7.44236 46.3432 5.09375 42.1802 5.09375ZM55.6349 8.8729H63.3552V5.36357H51.7747V22.6421H55.6349V8.8729ZM69.4212 5.36357H65.5611V22.6421H69.3933L76.5899 11.5999V22.6421H80.45V5.36357H76.5899L69.4212 16.4058V5.36357ZM99.8337 16.1622H95.8356C95.2289 18.0798 93.3818 19.4026 91.2038 19.4026C88.0324 19.4026 85.9644 16.7299 85.9644 14.0028C85.9644 11.2758 87.9774 8.60308 91.3138 8.60308C93.5197 8.60308 95.2289 9.92672 95.8356 11.8434H99.8337C99.2549 7.98284 96.1394 5.09375 91.2038 5.09375C85.7444 5.09375 82.1042 8.8466 82.1042 14.0028C82.1042 19.1591 85.7444 22.9119 91.2038 22.9119C96.1394 22.9119 99.2549 20.078 99.8337 16.1622Z" fill="#262626"/>
</g>
<defs>
<clipPath id="clip0_2494_19732">
<rect width="100" height="28" fill="white"/>
</clipPath>
</defs>
</svg>
