<svg width="495" height="174" viewBox="0 0 495 174" fill="none" xmlns="http://www.w3.org/2000/svg">
<path d="M95.7332 169.664V135.664H8.5V99.1544L89.8114 8.10738H134.453V105.087H160.418V135.664H134.453V169.664H95.7332ZM95.7332 105.087L97.5553 42.1074L45.3976 105.087H95.7332Z" fill="#FFD6DF"/>
<path d="M176.224 88.8859C176.224 34.5772 203.784 4 250.475 4C297.85 4 325.409 34.349 325.409 88.8859C325.409 143.423 298.078 174 250.475 174C203.784 174 176.224 143.195 176.224 88.8859ZM216.538 88.8859C216.538 122.886 229.293 140.913 250.931 140.913C272.568 140.913 285.095 122.886 285.095 88.8859C285.095 54.8859 272.568 36.8591 250.931 36.8591C229.293 36.8591 216.538 54.8859 216.538 88.8859Z" fill="#FFD6DF"/>
<path d="M429.815 169.664V135.664H342.582V99.1544L423.893 8.10738H468.535V105.087H494.5V135.664H468.535V169.664H429.815ZM429.815 105.087L431.637 42.1074L379.48 105.087H429.815Z" fill="#FFD6DF"/>
<path d="M87.7332 165.664V131.664H0.5V95.1544L81.8114 4.10738H126.453V101.087H152.418V131.664H126.453V165.664H87.7332ZM87.7332 101.087L89.5553 38.1074L37.3976 101.087H87.7332Z" fill="#F85077"/>
<path d="M168.224 84.8859C168.224 30.5772 195.784 0 242.475 0C289.85 0 317.409 30.349 317.409 84.8859C317.409 139.423 290.078 170 242.475 170C195.784 170 168.224 139.195 168.224 84.8859ZM208.538 84.8859C208.538 118.886 221.293 136.913 242.931 136.913C264.568 136.913 277.095 118.886 277.095 84.8859C277.095 50.8859 264.568 32.8591 242.931 32.8591C221.293 32.8591 208.538 50.8859 208.538 84.8859Z" fill="#F85077"/>
<path d="M421.815 165.664V131.664H334.582V95.1544L415.893 4.10738H460.535V101.087H486.5V131.664H460.535V165.664H421.815ZM421.815 101.087L423.637 38.1074L371.48 101.087H421.815Z" fill="#F85077"/>
</svg>
