<svg width="12" height="14" viewBox="0 0 12 14" fill="none" xmlns="http://www.w3.org/2000/svg">
<path fill-rule="evenodd" clip-rule="evenodd" d="M8.94059 0.844443L8.94125 1.34419C10.7777 1.48812 11.9908 2.73949 11.9927 4.65853L12 10.2757C12.0026 12.368 10.6882 13.6554 8.5812 13.6587L3.43459 13.6654C1.3408 13.668 0.00987771 12.35 0.00724484 10.2517L4.43316e-06 4.70051C-0.00262844 2.76881 1.16768 1.52077 3.00411 1.35219L3.00346 0.852439C3.0028 0.559252 3.22001 0.338696 3.50963 0.338696C3.79924 0.33803 4.01645 0.55792 4.01711 0.851106L4.01777 1.31754L7.92759 1.31221L7.92693 0.845775C7.92627 0.552589 8.14348 0.332699 8.4331 0.332033C8.71613 0.331366 8.93993 0.551256 8.94059 0.844443ZM1.01368 4.90642L10.9791 4.8931V4.65988C10.9508 3.22727 10.232 2.47564 8.94192 2.3637L8.94258 2.87677C8.94258 3.1633 8.71944 3.39052 8.43641 3.39052C8.14679 3.39118 7.92892 3.16463 7.92892 2.87811L7.92826 2.33838L4.01844 2.34371L4.0191 2.88277C4.0191 3.16996 3.80255 3.39651 3.51293 3.39651C3.22332 3.39718 3.00545 3.17129 3.00545 2.8841L3.00479 2.37103C1.72126 2.49963 1.01104 3.25392 1.01302 4.69919L1.01368 4.90642ZM8.15885 7.93492V7.94225C8.16543 8.24877 8.41556 8.48132 8.71899 8.47465C9.01519 8.46732 9.25149 8.21345 9.24491 7.90694C9.23109 7.61375 8.99347 7.37454 8.69793 7.3752C8.39515 7.38187 8.15819 7.62841 8.15885 7.93492ZM8.70401 10.9267C8.40123 10.9201 8.15703 10.6675 8.15637 10.361C8.14979 10.0545 8.39267 9.80062 8.69546 9.79329H8.70204C9.0114 9.79329 9.26218 10.0458 9.26218 10.359C9.26284 10.6722 9.01272 10.9261 8.70401 10.9267ZM5.44791 7.94558C5.46108 8.25209 5.71186 8.49131 6.01464 8.47798C6.31084 8.46399 6.54714 8.21078 6.53397 7.90427C6.52673 7.60442 6.28319 7.3712 5.98699 7.37187C5.68421 7.38519 5.44725 7.63907 5.44791 7.94558ZM6.01724 10.8968C5.71446 10.9101 5.46434 10.6709 5.45051 10.3644C5.45051 10.0578 5.68681 9.80464 5.9896 9.79065C6.28579 9.78998 6.52999 10.0232 6.53657 10.3224C6.5504 10.6296 6.31344 10.8828 6.01724 10.8968ZM2.73437 7.96889C2.74753 8.27541 2.99832 8.51529 3.3011 8.50129C3.59729 8.48797 3.83359 8.23409 3.81977 7.92758C3.81319 7.62773 3.56965 7.39452 3.27279 7.39518C2.97001 7.40851 2.73371 7.66238 2.73437 7.96889ZM3.3063 10.9001C3.00352 10.9141 2.7534 10.6742 2.73958 10.3677C2.73892 10.0611 2.97588 9.80727 3.27866 9.79394C3.57486 9.79328 3.81906 10.0265 3.82564 10.3263C3.83946 10.6329 3.60316 10.8867 3.3063 10.9001Z" fill="#00A7AA"/>
</svg>
