<svg width="56" height="56" viewBox="0 0 56 56" fill="none" xmlns="http://www.w3.org/2000/svg">
<rect width="56" height="56" rx="28" fill="#D6F1F0"/>
<path d="M28 25.2759C28.4734 25.2759 28.8571 25.6695 28.8571 26.1552V28.2069H30.8571C31.3305 28.2069 31.7143 28.6006 31.7143 29.0862C31.7143 29.5718 31.3305 29.9655 30.8571 29.9655H28.8571V32.0172C28.8571 32.5029 28.4734 32.8966 28 32.8966C27.5266 32.8966 27.1429 32.5029 27.1429 32.0172V29.9655H25.1429C24.6695 29.9655 24.2857 29.5718 24.2857 29.0862C24.2857 28.6006 24.6695 28.2069 25.1429 28.2069H27.1429V26.1552C27.1429 25.6695 27.5266 25.2759 28 25.2759Z" fill="black"/>
<path fill-rule="evenodd" clip-rule="evenodd" d="M23.8857 20C20.7076 20 18 22.4378 18 25.6039C18 27.7727 18.9016 29.68 20.1507 31.2921C21.3976 32.9015 23.0286 34.2675 24.5903 35.3773C25.1868 35.8013 25.7903 36.1923 26.3425 36.4809C26.8611 36.7518 27.4574 37 28 37C28.5426 37 29.1389 36.7518 29.6575 36.4809C30.2097 36.1923 30.8132 35.8013 31.4097 35.3773C32.9714 34.2675 34.6024 32.9015 35.8493 31.2921C37.0984 29.68 38 27.7727 38 25.6039C38 22.4378 35.2924 20 32.1143 20C30.476 20 29.0345 20.788 28 21.8077C26.9655 20.788 25.524 20 23.8857 20ZM19.7143 25.6039C19.7143 23.5514 21.5094 21.7586 23.8857 21.7586C25.2505 21.7586 26.5248 22.595 27.3205 23.6567C27.4827 23.8731 27.7338 24 28 24C28.2662 24 28.5173 23.8731 28.6795 23.6567C29.4752 22.595 30.7495 21.7586 32.1143 21.7586C34.4906 21.7586 36.2857 23.5514 36.2857 25.6039C36.2857 27.2494 35.6048 28.7814 34.5073 30.1979C33.4077 31.6172 31.9281 32.8695 30.4334 33.9317C29.8679 34.3337 29.3352 34.6757 28.8795 34.9138C28.3901 35.1694 28.1067 35.2414 28 35.2414C27.8933 35.2414 27.6099 35.1694 27.1205 34.9138C26.6648 34.6757 26.1321 34.3337 25.5666 33.9317C24.0719 32.8695 22.5923 31.6172 21.4927 30.1979C20.3952 28.7814 19.7143 27.2494 19.7143 25.6039Z" fill="black"/>
</svg>
