<svg width="56" height="56" viewBox="0 0 56 56" fill="none" xmlns="http://www.w3.org/2000/svg">
<rect width="56" height="56" rx="28" fill="#FFE6EC"/>
<path d="M25.16 31.1102C24.6894 31.1102 24.3079 31.4816 24.3079 31.9397C24.3079 32.3977 24.6894 32.7691 25.16 32.7691H27.148V34.7045C27.148 35.1626 27.5295 35.5339 28 35.5339C28.4706 35.5339 28.852 35.1626 28.852 34.7045V32.7691H30.8401C31.3106 32.7691 31.6921 32.3977 31.6921 31.9397C31.6921 31.4816 31.3106 31.1102 30.8401 31.1102H28.852V29.1749C28.852 28.7168 28.4706 28.3454 28 28.3454C27.5295 28.3454 27.148 28.7168 27.148 29.1749V31.1102H25.16Z" fill="black"/>
<path fill-rule="evenodd" clip-rule="evenodd" d="M22.6039 20.2846V21.6535C22.1844 21.6843 21.7651 21.7187 21.346 21.7566C19.4499 21.9286 18 23.4776 18 25.3315V34.1242C18 35.978 19.4499 37.5271 21.346 37.699C25.7724 38.1003 30.2276 38.1003 34.654 37.699C36.5501 37.5271 38 35.978 38 34.1242V25.3315C38 23.4776 36.5501 21.9286 34.654 21.7566C34.2349 21.7187 33.8156 21.6843 33.3961 21.6535V20.2846C33.3961 19.3266 32.6762 18.5127 31.703 18.3706L30.3171 18.1682C28.781 17.9439 27.219 17.9439 25.6829 18.1682L24.297 18.3706C23.3238 18.5127 22.6039 19.3266 22.6039 20.2846ZM30.0644 19.8088C28.6958 19.6089 27.3042 19.6089 25.9357 19.8088L24.5498 20.0111C24.4108 20.0314 24.3079 20.1477 24.3079 20.2846V21.5482C26.7677 21.4248 29.2323 21.4248 31.6921 21.5482V20.2846C31.6921 20.1477 31.5892 20.0314 31.4502 20.0111L30.0644 19.8088ZM34.496 23.4084C30.1747 23.0166 25.8253 23.0166 21.504 23.4084C20.484 23.5009 19.704 24.3342 19.704 25.3315V25.5806H36.296V25.3315C36.296 24.3342 35.516 23.5009 34.496 23.4084ZM36.296 27.2395H19.704V34.1242C19.704 35.1215 20.484 35.9548 21.504 36.0473C25.8253 36.4391 30.1747 36.4391 34.496 36.0473C35.516 35.9548 36.296 35.1215 36.296 34.1242V27.2395Z" fill="black"/>
</svg>
