<svg width="28" height="28" viewBox="0 0 28 28" fill="none" xmlns="http://www.w3.org/2000/svg">
<path fill-rule="evenodd" clip-rule="evenodd" d="M8.22699 0.667969H19.787C24.307 0.667969 27.3337 3.8413 27.3337 8.5613V19.456C27.3337 24.1613 24.307 27.3346 19.787 27.3346H8.22699C3.70699 27.3346 0.666992 24.1613 0.666992 19.456V8.5613C0.666992 3.8413 3.70699 0.667969 8.22699 0.667969ZM13.2403 17.988L19.5737 11.6546C20.027 11.2013 20.027 10.468 19.5737 10.0013C19.1203 9.54797 18.3737 9.54797 17.9203 10.0013L12.4137 15.508L10.0803 13.1746C9.62699 12.7213 8.88033 12.7213 8.42699 13.1746C7.97366 13.628 7.97366 14.3613 8.42699 14.828L11.6003 17.988C11.827 18.2146 12.1203 18.3213 12.4137 18.3213C12.7203 18.3213 13.0137 18.2146 13.2403 17.988Z" fill="#00A7AA"/>
</svg>
