<svg width="28" height="28" viewBox="0 0 28 28" fill="none" xmlns="http://www.w3.org/2000/svg">
<path fill-rule="evenodd" clip-rule="evenodd" d="M8.22602 0.664062H19.786C24.306 0.664062 27.3327 3.8374 27.3327 8.5574V19.4521C27.3327 24.1587 24.306 27.3307 19.786 27.3307H8.22602C3.70602 27.3307 0.666016 24.1587 0.666016 19.4521V8.5574C0.666016 3.8374 3.70602 0.664062 8.22602 0.664062ZM18.0127 17.9974C18.466 17.5454 18.466 16.8121 18.0127 16.3587L15.6393 13.9854L18.0127 11.6107C18.466 11.1587 18.466 10.4121 18.0127 9.95873C17.5593 9.50406 16.826 9.50406 16.3593 9.95873L13.9993 12.3307L11.626 9.95873C11.1593 9.50406 10.426 9.50406 9.97268 9.95873C9.51935 10.4121 9.51935 11.1587 9.97268 11.6107L12.346 13.9854L9.97268 16.3454C9.51935 16.8121 9.51935 17.5454 9.97268 17.9974C10.1993 18.2241 10.506 18.3454 10.7993 18.3454C11.106 18.3454 11.3993 18.2241 11.626 17.9974L13.9993 15.6387L16.3727 17.9974C16.5993 18.2387 16.8927 18.3454 17.186 18.3454C17.4927 18.3454 17.786 18.2241 18.0127 17.9974Z" fill="#F85077"/>
</svg>
