<svg width="14" height="14" viewBox="0 0 14 14" fill="none" xmlns="http://www.w3.org/2000/svg">
<path fill-rule="evenodd" clip-rule="evenodd" d="M7.96927 2.25605H10.0159C12.4759 2.25605 13.6759 3.56939 13.6693 6.26272V9.50939C13.6693 12.0827 12.0826 13.6694 9.5026 13.6694H4.49594C1.92927 13.6694 0.335938 12.0827 0.335938 9.50272V4.49605C0.335938 1.73605 1.5626 0.336051 3.9826 0.336051H5.03594C5.6566 0.329385 6.23594 0.616051 6.61594 1.10272L7.2026 1.88272C7.38927 2.11605 7.66927 2.25605 7.96927 2.25605ZM3.91594 9.19605H10.0893C10.3626 9.19605 10.5826 8.96938 10.5826 8.69605C10.5826 8.41605 10.3626 8.19605 10.0893 8.19605H3.91594C3.63594 8.19605 3.41594 8.41605 3.41594 8.69605C3.41594 8.96938 3.63594 9.19605 3.91594 9.19605Z" fill="#00A7AA"/>
</svg>
