<svg width="11" height="15" viewBox="0 0 11 15" fill="none" xmlns="http://www.w3.org/2000/svg">
<path fill-rule="evenodd" clip-rule="evenodd" d="M7.46289 1.03646e-05L7.45933 0H3.54067L3.53711 1.03646e-05H2.74615C2.42024 1.03646e-05 2.15604 0.260679 2.15604 0.582231C2.15604 0.903782 2.42024 1.16445 2.74615 1.16445H2.95056V5.09335C-0.552126 6.727 -1.05814 11.4907 2.0901 13.7944L2.32221 13.9642C4.20952 15.3453 6.79048 15.3453 8.6778 13.9642L8.9099 13.7944C12.0581 11.4907 11.5521 6.727 8.04944 5.09335V1.16445H8.25387C8.57978 1.16445 8.84399 0.903782 8.84399 0.582231C8.84399 0.260679 8.57978 1.03646e-05 8.25387 1.03646e-05H7.46289ZM2.27159 6.98665H8.72841C8.37258 6.61774 7.93201 6.30796 7.41006 6.08594C7.08183 5.94632 6.86922 5.62745 6.86922 5.27479V1.16445H4.13078V5.27479C4.13078 5.62745 3.91817 5.94632 3.58993 6.08594C3.06799 6.30796 2.62741 6.61774 2.27159 6.98665ZM3.92638 10.6741C3.49183 10.6741 3.13956 11.0216 3.13956 11.4503C3.13956 11.8791 3.49183 12.2266 3.92638 12.2266C4.36093 12.2266 4.7132 11.8791 4.7132 11.4503C4.7132 11.0216 4.36093 10.6741 3.92638 10.6741ZM5.50001 9.89776C5.50001 9.46902 5.85228 9.12146 6.28683 9.12146C6.72138 9.12146 7.07365 9.46902 7.07365 9.89776C7.07365 10.3265 6.72138 10.6741 6.28683 10.6741C5.85228 10.6741 5.50001 10.3265 5.50001 9.89776Z" fill="#00A7AA"/>
</svg>
