<svg width="14" height="14" viewBox="0 0 14 14" fill="none" xmlns="http://www.w3.org/2000/svg">
<path fill-rule="evenodd" clip-rule="evenodd" d="M13.3996 7.00156C13.3996 8.69895 12.7253 10.3268 11.5251 11.527C10.3249 12.7273 8.69699 13.4016 6.99961 13.4016C5.30222 13.4016 3.67436 12.7273 2.47413 11.527C1.27389 10.3268 0.599609 8.69895 0.599609 7.00156C0.599609 5.30418 1.27389 3.67631 2.47413 2.47608C3.67436 1.27585 5.30222 0.601563 6.99961 0.601562C8.69699 0.601563 10.3249 1.27585 11.5251 2.47608C12.7253 3.67631 13.3996 5.30418 13.3996 7.00156ZM7.79961 3.80156C7.79961 4.01374 7.71532 4.21722 7.56529 4.36725C7.41527 4.51728 7.21178 4.60156 6.99961 4.60156C6.78744 4.60156 6.58395 4.51728 6.43392 4.36725C6.2839 4.21722 6.19961 4.01374 6.19961 3.80156C6.19961 3.58939 6.2839 3.38591 6.43392 3.23588C6.58395 3.08585 6.78744 3.00156 6.99961 3.00156C7.21178 3.00156 7.41527 3.08585 7.56529 3.23588C7.71532 3.38591 7.79961 3.58939 7.79961 3.80156ZM6.19961 6.20156C5.98744 6.20156 5.78395 6.28585 5.63392 6.43588C5.4839 6.58591 5.39961 6.78939 5.39961 7.00156C5.39961 7.21374 5.4839 7.41722 5.63392 7.56725C5.78395 7.71728 5.98744 7.80156 6.19961 7.80156V10.2016C6.19961 10.4137 6.2839 10.6172 6.43392 10.7672C6.58395 10.9173 6.78744 11.0016 6.99961 11.0016H7.79961C8.01178 11.0016 8.21527 10.9173 8.36529 10.7672C8.51532 10.6172 8.59961 10.4137 8.59961 10.2016C8.59961 9.98939 8.51532 9.78591 8.36529 9.63588C8.21527 9.48585 8.01178 9.40156 7.79961 9.40156V7.00156C7.79961 6.78939 7.71532 6.58591 7.56529 6.43588C7.41527 6.28585 7.21178 6.20156 6.99961 6.20156H6.19961Z" fill="#00A7AA"/>
</svg>
