<svg width="36" height="28" viewBox="0 0 36 28" fill="none" xmlns="http://www.w3.org/2000/svg">
<path d="M1.22481 27.9471L6.6402 8.25481L8.44532 15.7215C6.09319 15.7215 4.1513 15.0377 2.61968 13.6702C1.14276 12.2479 0.404297 10.3335 0.404297 7.92661C0.404297 5.57447 1.17011 3.68729 2.70173 2.26507C4.23335 0.788146 6.12053 0.0496826 8.36327 0.0496826C10.6607 0.0496826 12.5479 0.788146 14.0248 2.26507C15.5017 3.68729 16.2402 5.57447 16.2402 7.92661C16.2402 8.63771 16.1855 9.34883 16.0761 10.0599C16.0214 10.7163 15.8299 11.5095 15.5017 12.4394C15.2282 13.3694 14.7633 14.6001 14.1069 16.1317L9.34789 27.9471H1.22481ZM20.5889 27.9471L26.0043 8.25481L27.8094 15.7215C25.4573 15.7215 23.5154 15.0377 21.9838 13.6702C20.5069 12.2479 19.7684 10.3335 19.7684 7.92661C19.7684 5.57447 20.5343 3.68729 22.0658 2.26507C23.5974 0.788146 25.4846 0.0496826 27.7274 0.0496826C30.0248 0.0496826 31.912 0.788146 33.3889 2.26507C34.8658 3.68729 35.6043 5.57447 35.6043 7.92661C35.6043 8.63771 35.5496 9.34883 35.4402 10.0599C35.3855 10.7163 35.1941 11.5095 34.8658 12.4394C34.5923 13.3694 34.1274 14.6001 33.471 16.1317L28.712 27.9471H20.5889Z" fill="#63D7DF"/>
</svg>
