<svg width="16" height="15" viewBox="0 0 16 15" fill="none" xmlns="http://www.w3.org/2000/svg">
<path d="M1.33398 0.833599V5.00027H1.81898M1.81898 5.00027C2.37219 3.63204 3.36372 2.48602 4.63818 1.74182C5.91263 0.99761 7.39799 0.697276 8.86146 0.887882C10.3249 1.07849 11.6838 1.74926 12.7251 2.79508C13.7664 3.8409 14.4314 5.20265 14.6157 6.66693M1.81898 5.00027H5.50065M14.6673 14.1669V10.0003H14.1832M14.1832 10.0003C13.6291 11.3677 12.6373 12.5128 11.363 13.2563C10.0887 13.9999 8.60377 14.2999 7.14073 14.1093C5.6777 13.9188 4.31915 13.2485 3.27776 12.2034C2.23638 11.1582 1.57095 9.7973 1.38565 8.3336M14.1832 10.0003H10.5007" stroke="#1B1B26" stroke-width="1.4" stroke-linecap="round" stroke-linejoin="round"/>
</svg>
